<?xml version="1.0"?>
<!--Icons from directory ""-->
<svg xmlns="http://www.w3.org/2000/svg" width="17" height="23" viewBox="0 0 17 23"><svg xmlns:xlink="http://www.w3.org/1999/xlink" id="e-mail" style="enable-background:new 0 0 485.411 485.411" xml:space="preserve" height="10" viewBox="0 0 485.411 485.411" width="17" version="1.1" y="0" x="0px">	<path d="m0 81.824v321.76h485.41v-321.76h-485.41zm242.71 198.71l-199.1-174.84h398.19l-199.09 174.84zm-79.31-37.88l-139.53 122.53v-245.06l139.53 122.53zm18.08 15.88l61.22 53.762 61.22-53.762 138 121.19h-398.43l137.99-121.19zm140.53-15.87l139.54-122.54v245.06l-139.54-122.52z" fill="#010002"/></svg><svg xmlns:xlink="http://www.w3.org/1999/xlink" id="fax" style="enable-background:new 0 0 91.249 91.25" xml:space="preserve" height="13" viewBox="0 0 91.249 91.25" width="12" version="1.1" y="10" x="0px">		<path d="m19.667 14.833h-18.667c-0.552 0-1 0.447-1 1v67.5c0 0.553 0.448 1 1 1h18.667c0.552 0 1-0.447 1-1v-67.5c0-0.553-0.448-1-1-1z"/>		<path d="m90.25 22.373h-2.167v-5.163l-9.59-11.001h-49.91c-1.654 0-3 1.346-3 3v13.164h-2.167c-0.552 0-1 0.447-1 1v60.668c0 0.553 0.448 1 1 1h66.833c0.552 0 1-0.447 1-1v-60.668c0.001-0.554-0.447-1-0.999-1zm-49.375 51.002h-9.75v-9.75h9.75v9.75zm0-15h-9.75v-9.75h9.75v9.75zm0-15h-9.75v-9.75h9.75v9.75zm15 30h-9.75v-9.75h9.75v9.75zm0-15h-9.75v-9.75h9.75v9.75zm0-15h-9.75v-9.75h9.75v9.75zm15 30h-9.75v-9.75h9.75v9.75zm0-15h-9.75v-9.75h9.75v9.75zm0-15h-9.75v-9.75h9.75v9.75zm13.208-21.002h-54.5v-12.165h45.935v8.449h8.522l0.043 0.05v3.666z"/></svg></svg>
